# xmcd
#
# Track frame offsets: 
#        150
#        19756
#        37891
#        52157
#        67567
#        86562
#        103979
#        123390
#        142161
#        161447
#
# Disc length: 2452 seconds
#
# Revision: 0
# Processed by: cddbd v1.5.2PL0 Copyright (c) Steve Scherf et al.
# Submitted via: ExactAudioCopy v0.99pb5
#
DISCID=8209920a
DTITLE=Stranger than the night - The Bullfight
DYEAR=2010
DGENRE=Indie
TTITLE0=Bamboo Knife Woman
TTITLE1=Desmond and Julia
TTITLE2=Waiting For Antony
TTITLE3=Dance With Me, Damn It
TTITLE4=Nathalie Strangle Me
TTITLE5=The Ballad Of Martin Van Dongen
TTITLE6=Martin's Room
TTITLE7=The Gospel Of Ramshackle's girl
TTITLE8=Wild Flowers
TTITLE9=Bamboo Knife Children
EXTD=
EXTT0=
EXTT1=
EXTT2=
EXTT3=
EXTT4=
EXTT5=
EXTT6=
EXTT7=
EXTT8=
EXTT9=
PLAYORDER=
